<svg width="56" height="48" viewBox="0 0 56 48" fill="none" xmlns="http://www.w3.org/2000/svg">
<path fill-rule="evenodd" clip-rule="evenodd" d="M2.58579 0.585786C3.36683 -0.195262 4.63317 -0.195262 5.41421 0.585786L49.4142 44.5858C50.1953 45.3668 50.1953 46.6332 49.4142 47.4142C48.6332 48.1953 47.3668 48.1953 46.5858 47.4142L2.58579 3.41421C1.80474 2.63317 1.80474 1.36683 2.58579 0.585786Z" fill="white"/>
<path d="M24 9.115V13.34C24.0002 13.4722 24.0528 13.599 24.1462 13.6925L27.1462 16.6925C27.2161 16.7624 27.3051 16.8101 27.402 16.8295C27.499 16.8488 27.5995 16.839 27.6908 16.8013C27.7822 16.7636 27.8603 16.6996 27.9153 16.6175C27.9704 16.5354 27.9998 16.4388 28 16.34V7.07125C28.0056 6.51791 27.8613 5.97337 27.5825 5.49538C27.3036 5.01739 26.9007 4.62377 26.4163 4.35625C25.917 4.08753 25.3517 3.96635 24.7862 4.00686C24.2207 4.04736 23.6783 4.24788 23.2225 4.585C23.1939 4.60485 23.1664 4.62613 23.14 4.64875L19.1475 7.9175C19.0936 7.96178 19.0495 8.01687 19.0181 8.07921C18.9868 8.14155 18.9688 8.20976 18.9654 8.27947C18.962 8.34917 18.9732 8.41881 18.9983 8.48392C19.0234 8.54903 19.0619 8.60816 19.1112 8.6575L21.2425 10.79C21.3304 10.8778 21.4478 10.9298 21.5718 10.9358C21.6959 10.9418 21.8178 10.9014 21.9137 10.8225L24 9.115Z" fill="white"/>
<path d="M24 38.885L14.2412 30.895C13.5248 30.3131 12.6292 29.9969 11.7063 30H4V18H10.34C10.4388 17.9998 10.5354 17.9704 10.6175 17.9153C10.6996 17.8603 10.7636 17.7822 10.8013 17.6908C10.839 17.5995 10.8488 17.499 10.8295 17.402C10.8101 17.3051 10.7624 17.2161 10.6925 17.1462L7.6925 14.1462C7.59896 14.0528 7.47222 14.0002 7.34 14H3C2.20435 14 1.44129 14.3161 0.87868 14.8787C0.316071 15.4413 0 16.2044 0 17V31C0 31.7956 0.316071 32.5587 0.87868 33.1213C1.44129 33.6839 2.20435 34 3 34H11.72L23.14 43.35C23.1664 43.3726 23.1939 43.3939 23.2225 43.4137C23.684 43.7554 24.2341 43.957 24.8071 43.9944C25.38 44.0319 25.9517 43.9036 26.4538 43.625C26.9283 43.3547 27.322 42.9625 27.5939 42.4888C27.8658 42.0151 28.006 41.4774 28 40.9313V34.66C27.9998 34.5278 27.9472 34.401 27.8538 34.3075L24.8538 31.3075C24.7839 31.2376 24.6949 31.1899 24.598 31.1705C24.501 31.1512 24.4005 31.161 24.3092 31.1987C24.2178 31.2364 24.1397 31.3004 24.0847 31.3825C24.0296 31.4646 24.0002 31.5612 24 31.66V38.885Z" fill="white"/>
<path d="M40 24C40 20.93 39.2738 18.015 37.7812 15.0912C37.5346 14.6288 37.1163 14.2816 36.6163 14.1244C36.1162 13.9673 35.5745 14.0126 35.1076 14.2508C34.6407 14.489 34.286 14.901 34.1198 15.3981C33.9535 15.8951 33.9891 16.4376 34.2188 16.9088C35.4175 19.2575 36 21.5775 36 24C36 24.3333 35.9871 24.6721 35.9613 25.0163C35.9506 25.1597 35.9709 25.3037 36.021 25.4385C36.071 25.5733 36.1496 25.6958 36.2513 25.7975L38.7088 28.2562C38.7724 28.3202 38.8521 28.3657 38.9395 28.388C39.0269 28.4103 39.1187 28.4086 39.2052 28.383C39.2917 28.3573 39.3696 28.3088 39.4308 28.2425C39.4919 28.1762 39.534 28.0945 39.5525 28.0062C39.8483 26.6913 39.9983 25.3478 40 24Z" fill="white"/>
<path d="M48 24C48 17.6013 46.365 13.5137 43.7275 8.9925C43.4566 8.54173 43.0191 8.21579 42.5097 8.08525C42.0003 7.9547 41.4599 8.03006 41.0056 8.295C40.5513 8.55994 40.2197 8.99315 40.0825 9.50082C39.9453 10.0085 40.0135 10.5498 40.2725 11.0075C42.6337 15.055 44 18.4788 44 24C44 26.9787 43.5888 29.36 42.8288 31.5812C42.7677 31.7583 42.7575 31.949 42.7995 32.1315C42.8415 32.3141 42.9339 32.4812 43.0662 32.6138L45.1625 34.7088C45.2204 34.7669 45.2917 34.8099 45.3702 34.8339C45.4486 34.858 45.5318 34.8623 45.6123 34.8466C45.6929 34.831 45.7683 34.7957 45.832 34.744C45.8957 34.6922 45.9456 34.6256 45.9775 34.55C47.2613 31.485 48 28.2387 48 24Z" fill="white"/>
<path d="M56 24C56 14.7175 53.4762 8.86125 49.6862 2.92375C49.4008 2.4762 48.9493 2.16037 48.431 2.04573C47.9127 1.9311 47.3701 2.02706 46.9225 2.3125C46.4749 2.59794 46.1591 3.04948 46.0445 3.56778C45.9299 4.08609 46.0258 4.6287 46.3112 5.07625C49.7275 10.4225 52 15.6875 52 24C52 29.9312 50.8875 34.265 49.0513 38.125C49.0066 38.2181 48.9919 38.3228 49.0091 38.4247C49.0263 38.5265 49.0747 38.6205 49.1475 38.6937L51.375 40.9238C51.4307 40.9798 51.4989 41.0219 51.5739 41.0465C51.649 41.0711 51.7288 41.0776 51.8069 41.0654C51.8849 41.0532 51.959 41.0226 52.023 40.9763C52.087 40.93 52.1391 40.8691 52.175 40.7988C54.86 35.5275 56 30.375 56 24Z" fill="white"/>
</svg>
