<svg width="52" height="52" viewBox="0 0 52 52" fill="none" xmlns="http://www.w3.org/2000/svg">
<path fill-rule="evenodd" clip-rule="evenodd" d="M0 26C0 11.6454 11.6454 0 26 0C40.3546 0 52 11.6454 52 26C52 40.3546 40.3546 52 26 52C11.6454 52 0 40.3546 0 26ZM26 4C13.8546 4 4 13.8546 4 26C4 38.1454 13.8546 48 26 48C38.1454 48 48 38.1454 48 26C48 13.8546 38.1454 4 26 4Z" fill="white"/>
<path d="M32.8 36H19.2C18.3515 35.9993 17.538 35.662 16.938 35.062C16.338 34.462 16.0007 33.6485 16 32.8V19.2C16.0007 18.3515 16.338 17.538 16.938 16.938C17.538 16.338 18.3515 16.0007 19.2 16H32.8C33.6485 16.0007 34.462 16.338 35.062 16.938C35.662 17.538 35.9993 18.3515 36 19.2V32.8C35.9993 33.6485 35.662 34.462 35.062 35.062C34.462 35.662 33.6485 35.9993 32.8 36Z" fill="white"/>
</svg>
